<?xml version="1.0" encoding="UTF-8"?>
<!DOCTYPE svg PUBLIC "-//W3C//DTD SVG 1.1//EN" "http://www.w3.org/Graphics/SVG/1.1/DTD/svg11.dtd">
<!-- Creator: CorelDRAW -->
<svg xmlns="http://www.w3.org/2000/svg" xml:space="preserve" width="210mm" height="297mm" version="1.1" style="shape-rendering:geometricPrecision; text-rendering:geometricPrecision; image-rendering:optimizeQuality; fill-rule:evenodd; clip-rule:evenodd"
viewBox="0 0 21000 29700"
 xmlns:xlink="http://www.w3.org/1999/xlink"
 xmlns:xodm="http://www.corel.com/coreldraw/odm/2003">
 <defs>
  <style type="text/css">
   <![CDATA[
    .fil4 {fill:white}
    .fil3 {fill:#E4483B}
    .fil6 {fill:#B33D33}
    .fil5 {fill:#AEBED8}
    .fil1 {fill:#677487}
    .fil2 {fill:#252523}
    .fil0 {fill:#3A4351}
   ]]>
  </style>
 </defs>
 <g id="Слой_x0020_1">
  <metadata id="CorelCorpID_0Corel-Layer"/>
  <g id="_105553987781088">
   <polygon class="fil0" points="11414.77,20411.43 9570.96,20411.43 9570.96,15587.46 11414.77,15587.46 "/>
   <polygon class="fil1" points="17762.81,16316.05 3222.92,16316.05 3222.92,15473.93 17762.81,15473.93 "/>
   <polygon class="fil1" points="14857.16,20411.43 6128.74,20411.43 6128.74,19569.2 14857.16,19569.2 "/>
   <polygon class="fil2" points="4042.75,13687.98 17003.13,13687.98 17003.13,11859.68 4042.75,11859.68 "/>
   <path class="fil0" d="M13085.46 14036.46c0,797.05 646,1443.05 1443.1,1443.05 796.89,0 1443.1,-646 1443.1,-1443.05 0,-796.99 -646.21,-1443.05 -1443.1,-1443.05 -797.1,0 -1443.1,646.11 -1443.1,1443.05z"/>
   <path class="fil0" d="M5193.86 14030.89c0,796.99 646,1443.1 1442.94,1443.1 796.88,-0.06 1443.1,-646.05 1443.1,-1443.1 0,-797 -646.22,-1442.83 -1443.1,-1442.83 -796.89,-0.05 -1442.94,645.89 -1442.94,1442.83z"/>
   <path class="fil3" d="M7130.92 9928.03c597.27,-434.86 979.62,-638.35 1559.3,-638.35l2653.81 -0.06 2653.75 0c579.51,0 961.87,203.61 1559.13,638.41 564.49,411.3 2205.9,1581.69 2205.9,1581.69l-6418.78 0.17 -6419.01 -0.17c0,0 1641.63,-1170.33 2205.9,-1581.69z"/>
   <path class="fil4" d="M14703.54 10229.42c-409.72,-275.61 -672.22,-404.48 -1069.81,-404.48l-1573.01 0 -693.2 0 -2314.56 0c-397.81,0 -660.31,128.87 -1070.03,404.53 -387.16,260.48 -1043.59,756.46 -1043.59,756.46l3960.27 0 444.42 0 4404.47 0c0,0 -657.58,-495.98 -1044.96,-756.51z"/>
   <path class="fil5" d="M14528.56 13199.75c-461.95,0 -836.6,374.65 -836.6,836.71 0,462.06 374.65,836.66 836.6,836.66 462.17,0 836.6,-374.6 836.6,-836.66 0,-462.06 -374.48,-836.66 -836.6,-836.71z"/>
   <path class="fil5" d="M6636.8 13194.45c-461.95,0 -836.61,374.6 -836.61,836.44 0,462.06 374.66,836.71 836.61,836.71 462.16,-0.06 836.6,-374.65 836.6,-836.71 0,-461.84 -374.49,-836.44 -836.6,-836.44z"/>
   <path class="fil3" d="M17762.81 14030.89l-1421.14 0c-1.69,-538.65 -238.4,-1021.91 -612.84,-1352.91l2033.98 0 0 1352.91z"/>
   <path class="fil6" d="M3792.22 11509.72l4657.9 0 4265.33 0 5047.36 0 0 1168.26 -2033.98 0c-319.74,-282.76 -739.85,-454.68 -1200.27,-454.68 -460.42,0 -880.57,171.92 -1200.27,454.68 -374.49,331 -611.31,814.31 -612.89,1352.91l-4265.28 0c0,-537.89 -234.58,-1020.92 -606.72,-1352.91 -320.45,-286.15 -743.13,-460.26 -1206.6,-460.26 -463.48,0 -885.94,174.11 -1206.67,460.26l-2207.21 0 0 -556.29c0,0 0,-611.97 569.3,-611.97z"/>
   <path class="fil3" d="M5430.13 12677.98c-372.14,331.99 -606.5,815.02 -606.5,1352.91l0.06 0 -1600.77 0 0 -1352.91 2207.21 0z"/>
  </g>
 </g>
</svg>
