<?xml version="1.0" encoding="UTF-8"?>
<!DOCTYPE svg PUBLIC "-//W3C//DTD SVG 1.1//EN" "http://www.w3.org/Graphics/SVG/1.1/DTD/svg11.dtd">
<!-- Creator: CorelDRAW -->
<svg xmlns="http://www.w3.org/2000/svg" xml:space="preserve" width="200mm" height="150mm" version="1.1" style="shape-rendering:geometricPrecision; text-rendering:geometricPrecision; image-rendering:optimizeQuality; fill-rule:evenodd; clip-rule:evenodd"
viewBox="0 0 20000 15000"
 xmlns:xlink="http://www.w3.org/1999/xlink"
 xmlns:xodm="http://www.corel.com/coreldraw/odm/2003">
 <defs>
  <style type="text/css">
   <![CDATA[
    .fil0 {fill:#252523}
    .fil8 {fill:#2E70B6}
    .fil1 {fill:#3A4351}
    .fil9 {fill:#489AD4}
    .fil6 {fill:#677487}
    .fil2 {fill:#6989B4}
    .fil5 {fill:#87C3EB}
    .fil7 {fill:#E4483B}
    .fil3 {fill:#EAF6FE}
    .fil4 {fill:white}
   ]]>
  </style>
 </defs>
 <g id="Слой_x0020_1">
  <metadata id="CorelCorpID_0Corel-Layer"/>
  <g id="_105553988396096">
   <polygon class="fil0" points="1891.16,8171.11 15526.93,8171.11 15526.93,6247.38 1891.16,6247.38 "/>
   <path class="fil1" d="M3102.2 8531.89c0,838.51 679.7,1518.05 1518.21,1518.05 838.46,0 1518.16,-679.54 1518.16,-1518.05 0,-838.57 -679.7,-1518.06 -1518.16,-1518.06 -838.51,0 -1518.21,679.49 -1518.21,1518.06z"/>
   <path class="fil2" d="M5140.38 4215.09c628.19,-457.52 1030.59,-671.62 1640.37,-671.62l2792.13 0 2792.07 0c609.78,0 1012.18,214.1 1640.54,671.62 593.77,432.89 2320.83,1664.14 2320.83,1664.14l-6753.44 0.21 -6753.56 -0.21c0,0 1727.12,-1231.25 2321.06,-1664.14z"/>
   <path class="fil3" d="M11982 4106.6c418.35,0 694.56,135.7 1125.65,425.73 407.53,274.02 1099.37,795.95 1099.37,795.95l-4634.14 -0.05 -467.52 0 1221.63 -1221.63 1655.01 0z"/>
   <path class="fil4" d="M6036.69 4532.33c431.08,-290.03 707.18,-425.73 1125.65,-425.73l2435.34 0 729.31 0 -1221.63 1221.63 -4166.67 0c0,0 690.52,-521.88 1098,-795.9z"/>
   <path class="fil3" d="M5500.66 8531.89c0,486.04 -394.1,880.14 -880.25,880.14l0 -1760.34c486.15,0 880.25,394.15 880.25,880.2z"/>
   <path class="fil4" d="M4620.41 7651.69l0 1760.34c-486.15,0 -880.25,-394.1 -880.25,-880.14 0.06,-486.1 394.1,-880.2 880.25,-880.2z"/>
   <path class="fil2" d="M16326.32 8531.89l-1495.27 0c-1.69,-566.84 -250.8,-1075.23 -644.79,-1423.44l2140.06 -0.05 0 1423.49z"/>
   <path class="fil5" d="M1627.52 5879.23l4900.62 0 4487.68 0 5310.5 0 0 1229.17 -2140.06 0c-336.47,-297.57 -778.37,-478.29 -1262.83,-478.29 -484.4,-0.05 -926.41,180.77 -1262.82,478.34 -393.93,348.21 -643.1,856.65 -644.79,1423.44l-4487.68 0c0,-566.08 -246.71,-1074.08 -638.19,-1423.44 -337.23,-301.06 -781.97,-484.35 -1269.54,-484.35 -487.62,0 -932.26,183.29 -1269.54,484.35l-2322.31 -0.05 0 -585.25c0,0 0,-643.92 598.96,-643.92z"/>
   <path class="fil2" d="M3350.87 7108.4c-391.53,349.41 -638.19,857.47 -638.19,1423.49l0 0 -1684.12 0 0 -1423.49 2322.31 0z"/>
   <path class="fil1" d="M14615.7 8326.04c0,897.9 -728.05,1625.62 -1626.05,1625.62 -897.96,0 -1626.01,-727.72 -1626.01,-1625.62 0,-898.28 728.05,-1626 1626.01,-1626 898,0 1626.05,727.72 1626.05,1626z"/>
   <path class="fil6" d="M12989.7 7911.89c228.57,0 413.77,185.58 413.77,413.99 0,228.51 -185.2,413.93 -413.77,413.93 -228.68,0 -413.93,-185.36 -413.93,-413.93 0,-228.41 185.25,-413.99 413.93,-413.99zm-1437.47 784.16l625.4 0c89.21,195.41 246.54,352.69 442.01,442.12l0 625.18 740.07 0 0 -625.18c195.46,-89.43 352.8,-246.66 442.01,-442.12l625.51 0 0 -740.02 -625.51 0c-89.21,-195.84 -246.55,-352.91 -442.01,-442.12l0 -625.56 -740.07 0 0 625.56c-195.47,89.21 -352.8,246.33 -442.01,442.12l-625.4 0 0 740.02z"/>
   <path class="fil7" d="M14272.52 8325.82c0,707.51 -575.53,1282.98 -1282.82,1282.98l0 342.86c896.64,0 1626,-729.09 1626,-1625.78 0,-896.59 -729.36,-1625.84 -1626,-1625.84l0 343.24c707.29,0 1282.82,575.31 1282.82,1282.54z"/>
   <path class="fil2" d="M11363.64 8325.82c0,896.75 729.37,1625.84 1626.06,1625.84l0 0 0 -342.86c-707.46,0 -1282.82,-575.47 -1282.82,-1282.92 0.06,-707.35 575.36,-1282.6 1282.82,-1282.6l0 0 0 -343.24c-896.69,0 -1626.06,729.25 -1626.06,1625.78z"/>
   <path class="fil1" d="M15524.85 8396.19l670.64 -215.46 -143.79 -814.81 -703.69 26.93c-92.37,-232.61 -218.19,-448.62 -371.59,-641.51l375.75 -597.27 -634.09 -531.93 -521.39 472.76c-215.68,-117.01 -450.09,-203.71 -697.68,-254.41l-95.54 -696.69 -413.77 0 0 1556.24c896.64,0 1626,729.25 1626,1625.84 0,896.69 -729.36,1625.78 -1626,1625.78l0 911.01c126.14,0 250.04,-9.45 371.26,-27.59l328.33 622.51 777.76 -282.93 -148.97 -688.77c211.91,-130.68 402.95,-291.78 567.6,-476.98l652.99 266.49 413.77 -716.69 -556.24 -431.52c77.08,-231.09 121.66,-476.21 128.65,-731z"/>
   <path class="fil7" d="M12989.7 9951.66c-896.69,0 -1626.06,-729.09 -1626.06,-1625.78 0,-896.59 729.37,-1625.84 1626.06,-1625.84l0 0 0 -1556.24 -413.82 0 -95.55 696.69c-247.47,50.48 -482,137.45 -697.68,254.41l-521.49 -472.76 -633.98 531.93 375.74 597.05c-153.4,193.11 -279.21,409.18 -371.59,641.79l-703.63 -26.82 -143.79 814.8 670.58 215.3c7.05,254.79 51.68,499.91 128.66,731l-556.13 431.52 413.76 716.69 652.88 -266.54c164.66,185.25 355.7,346.35 567.61,477.03l-148.76 688.77 777.76 282.93 328.11 -622.51c121.28,18.14 245.12,27.59 371.32,27.59l0 0 0 -911.01z"/>
   <path class="fil8" d="M17069.67 5694.25c134.67,0 243.76,109.1 243.76,243.76 0,134.55 -109.09,243.81 -243.81,243.81 -134.5,0 -243.6,-109.26 -243.6,-243.81 0,-134.66 109.1,-243.76 243.65,-243.76zm-846.05 461.57l368.1 0c52.39,115.05 145.09,207.75 260.14,259.98l0 368.26 435.73 0 0 -368.26c115.11,-52.23 207.76,-144.93 260.2,-259.98l368.32 0 0 -435.73 -368.32 0c-52.44,-115.27 -145.15,-207.76 -260.2,-260.37l0 -367.93 -435.73 0 0 367.93c-115.05,52.56 -207.75,145.1 -260.2,260.37l-368.04 0 0 435.73z"/>
   <path class="fil9" d="M17825.09 5938.01c0,416.5 -338.81,755.31 -755.47,755.31l0.05 201.97c528.05,0 957.39,-429.56 957.39,-957.28 0.05,-527.84 -429.39,-957.44 -957.44,-957.44l0.05 201.96c416.66,0.22 755.42,338.82 755.42,755.48z"/>
   <path class="fil1" d="M16112.39 5938.01c0,527.72 429.39,957.28 957.23,957.28l0.05 0 0 -201.97c-416.28,0 -755.09,-338.81 -755.09,-755.31 0,-416.66 338.76,-755.42 755.04,-755.42l0.05 -0.06 0 -201.96c-527.89,0 -957.28,429.6 -957.28,957.44z"/>
   <path class="fil1" d="M18562.27 5979.47l394.92 -127.01 -84.84 -479.87 -414.15 15.79c-54.36,-136.85 -128.55,-263.81 -218.74,-377.71l221.03 -351.38 -373.06 -313.14 -307.02 278.28c-127.02,-68.99 -265.18,-120.07 -410.71,-149.9l-56.27 -410.16 -243.76 0 0 916.2c528.05,0 957.39,429.6 957.39,957.44 0.05,527.72 -429.39,957.28 -957.44,957.28l0.05 536.3c74.35,0 147.39,-5.58 218.69,-16.34l193.33 366.35 457.69 -166.35 -87.46 -405.68c124.66,-76.86 237.2,-171.86 333.95,-280.96l384.7 156.9 243.6 -421.85 -327.62 -254.03c45.45,-135.87 71.68,-280.42 75.72,-430.16z"/>
   <path class="fil9" d="M17069.67 6895.29c-527.89,0 -957.28,-429.56 -957.28,-957.28 0,-527.84 429.39,-957.44 957.23,-957.44l0.05 0 0 -916.2 -243.43 0 -56.27 410.16c-145.91,29.66 -283.69,80.91 -410.87,149.9l-307.02 -278.28 -373.17 313.14 221.19 351.38c-90.25,113.85 -164.38,240.86 -218.79,377.71l-414.2 -15.63 -84.79 479.71 394.81 127.01c4.15,149.74 30.43,294.29 75.77,430.16l-327.39 254.03 243.59 421.85 384.49 -156.9c96.91,109.1 209.34,204.1 334,281.02l-87.51 405.62 457.9 166.35 193.34 -366.35c71.29,10.76 144.11,16.39 218.3,16.39l0.05 -0.05 0 -536.3z"/>
  </g>
 </g>
</svg>
