<?xml version="1.0" encoding="UTF-8"?>
<!DOCTYPE svg PUBLIC "-//W3C//DTD SVG 1.1//EN" "http://www.w3.org/Graphics/SVG/1.1/DTD/svg11.dtd">
<!-- Creator: CorelDRAW -->
<svg xmlns="http://www.w3.org/2000/svg" xml:space="preserve" width="210mm" height="297mm" version="1.1" style="shape-rendering:geometricPrecision; text-rendering:geometricPrecision; image-rendering:optimizeQuality; fill-rule:evenodd; clip-rule:evenodd"
viewBox="0 0 21000 29700"
 xmlns:xlink="http://www.w3.org/1999/xlink"
 xmlns:xodm="http://www.corel.com/coreldraw/odm/2003">
 <defs>
  <style type="text/css">
   <![CDATA[
    .fil4 {fill:white}
    .fil3 {fill:#FBD1BE}
    .fil0 {fill:#F8BBA5}
    .fil5 {fill:#E4483B}
    .fil2 {fill:#6989B4}
    .fil6 {fill:#489AD4}
    .fil1 {fill:#3A4351}
    .fil7 {fill:#2E70B6}
   ]]>
  </style>
 </defs>
 <g id="Слой_x0020_1">
  <metadata id="CorelCorpID_0Corel-Layer"/>
  <g id="_105553988414688">
   <path class="fil0" d="M7691.49 14373.8c1.14,369.68 295.76,575.86 672.38,851.85l0 0c369.74,-1.15 668.67,-302 667.47,-672.01l-5.47 -1765.36c-1.25,-370.01 -301.88,-668.72 -671.78,-667.74l0 0c-369.84,1.15 -668.61,302.38 -667.68,672l5.08 1581.26z"/>
   <polygon class="fil1" points="15246.74,13389.37 6034.24,13388.99 6034.35,11362.17 15246.79,11362.17 "/>
   <path class="fil2" d="M16570.47 12818.16l-662.22 -643.7 1456.1 -1470.25c-229.01,-171.32 -714.78,-310.3 -1029.28,-310.3 -1094.13,0 -1981.42,887.68 -1981.2,1981.97 -0.11,1094.07 889.37,2002.79 1983.39,2002.79 1094.39,-0.06 1979.18,-909.1 1979.34,-2002.79 -0.16,-667.03 -154.54,-811.96 -290.79,-1010.05l-1455.34 1452.33z"/>
   <path class="fil1" d="M4772.89 11376.43l-2046.27 2046.49c44.14,202.95 112.37,397.21 202.08,578.96l1827.58 -1827.42 1209.83 1209.72 -1802.62 1802.73c170.07,74.79 350.18,130.08 537.07,165.91l2024.31 -2024.3 -1951.98 -1952.09z"/>
   <path class="fil1" d="M16580.03 13228.27l1615.95 -1595.14c-51.3,-124.11 -98.11,-195.79 -170.17,-275.98l-1436.93 1436.54 -658.73 -658.73 1435.78 -1435.78c-91.77,-69.16 -149.35,-100.41 -249.22,-133.57l-1599.56 1599.84 1062.88 1062.82z"/>
   <path class="fil2" d="M7675.21 12897.6c0,-1383.01 -1120.57,-2503.69 -2503.03,-2503.31 -1382.46,0 -2502.92,1120.3 -2503.03,2502.92 0.11,180.56 20.54,355.92 57.47,525.71l2046.27 -2046.49 1951.98 1952.09 -2024.31 2024.3c153.07,29.72 309.97,47.42 471.62,47.42 1382.46,0 2503.14,-1120.84 2503.03,-2502.64z"/>
   <path class="fil3" d="M8347.75 10438.05c-1.03,-369.24 297.85,-670.47 667.8,-671.45 369.68,-1.15 670.47,297.57 671.4,667.63l-1.15 -438.46c-1.31,-369.68 297.84,-670.31 667.47,-671.45 370.12,-1.15 670.96,297.73 671.89,667.41l1.53 438.02c-1.31,-369.63 297.62,-670.47 667.25,-671.46 370.12,-1.14 670.85,297.79 671.89,667.25l1.7 502.6c-1.21,-369.63 297.56,-670.86 667.46,-671.84 369.85,-1.15 670.69,297.95 672,667.58l0.39 157.49 16.39 5763.5 5.62 1843.6 -5354.87 16.99 -7.1 -2317.89c-0.44,-9.45 -2.89,-18.9 -2.89,-28.14l-16.78 -5921.38z"/>
   <path class="fil4" d="M12270.72 16647.77c-2.07,-676.48 -553.89,-1224.96 -1230.1,-1222.67 -676.42,1.97 -1224.74,553.73 -1222.78,1230.15 2.19,676.27 554,1224.37 1230.21,1222.24 676.21,-1.92 1224.53,-553.46 1222.67,-1229.72z"/>
   <path class="fil1" d="M11048.05 17877.49c-676.21,2.13 -1228.02,-545.97 -1230.21,-1222.24 -1.96,-676.42 546.36,-1228.18 1222.78,-1230.15 676.21,-2.29 1228.03,546.19 1230.1,1222.67 1.86,676.26 -546.46,1227.8 -1222.67,1229.72zm1456.6 -1972.14c-273.26,-532.64 -827.26,-897.68 -1465.56,-895.76 -638.4,1.74 -1190.22,370.6 -1459.71,904.83l-1216.27 3.66 5.46 1748.59 1384.92 -4.26c301.94,384.32 770.28,632.12 1295.98,630.59 525.32,-1.53 992.3,-252.28 1291.83,-638.46l1384.92 -4.42 -5.46 -1748.81 -1216.11 4.04z"/>
   <path class="fil5" d="M11819.75 16583.36l-550.88 1.75c-22.73,-76.7 -82.88,-136.63 -159.8,-158.81l-2.4 -764.93 -131 0.39 2.29 764.92c-97.62,29.12 -169.24,118.55 -168.86,225.51 0.33,129.48 106.37,234.53 236,234.15 106.8,-0.38 195.74,-72.28 224.09,-170.17l551.16 -1.53 -0.6 -131.28z"/>
   <polygon class="fil6" points="8373.76,18627.55 8180.53,18628.37 8185.83,20376.75 11057.83,20367.68 11052.37,18619.3 "/>
   <polygon class="fil7" points="13924.48,18610.24 13731.3,18611 11052.37,18619.3 11057.83,20367.68 13930.1,20358.77 "/>
  </g>
 </g>
</svg>
